<?xml version="1.0" standalone="no"?><!DOCTYPE svg PUBLIC "-//W3C//DTD SVG 1.1//EN" "http://www.w3.org/Graphics/SVG/1.1/DTD/svg11.dtd"><svg t="1725948602397" class="icon" viewBox="0 0 1024 1024" version="1.1" xmlns="http://www.w3.org/2000/svg" p-id="4292" xmlns:xlink="http://www.w3.org/1999/xlink" width="200" height="200"><path d="M663.04 80H156.16A92.16 92.16 0 0 0 64 172.16v506.88a92.16 92.16 0 0 0 92.16 92.16h506.88a92.16 92.16 0 0 0 92.16-92.16V172.16A92.16 92.16 0 0 0 663.04 80z" fill="#0065F3" p-id="4293"></path><path d="M859.616 272h-506.88a92.16 92.16 0 0 0-92.16 92.16v506.88a92.16 92.16 0 0 0 92.16 92.16h506.88a92.16 92.16 0 0 0 92.16-92.16V364.16a92.16 92.16 0 0 0-92.16-92.16z" fill="#82B6FA" opacity=".4" p-id="4294"></path><path d="M348.16 280h506.88a84.16 84.16 0 0 1 84.16 84.16v506.88a84.16 84.16 0 0 1-84.16 84.16H348.16a84.16 84.16 0 0 1-84.16-84.16V364.16a84.16 84.16 0 0 1 84.16-84.16z m607.04 84.16a100.16 100.16 0 0 0-100.16-100.16H348.16a100.16 100.16 0 0 0-100.16 100.16v506.88a100.16 100.16 0 0 0 100.16 100.16h506.88a100.16 100.16 0 0 0 100.16-100.16V364.16z" fill="#FFFFFF" opacity=".4" p-id="4295"></path><path d="M820.576 514.864v-26A41.216 41.216 0 0 0 779.712 448H445.44a41.216 41.216 0 0 0-40.848 40.864v26h416z m-416 29.712v213.936a41.216 41.216 0 0 0 40.848 40.864h334.288a41.216 41.216 0 0 0 40.864-40.864V544.576h-416z m130.736 156.736a14.368 14.368 0 0 1 0 20.8 14.656 14.656 0 0 1-10.4 4.464 14.656 14.656 0 0 1-10.4-4.464l-54.976-54.976a14.368 14.368 0 0 1 0-20.8l54.976-54.96a14.368 14.368 0 0 1 20.8 0 14.368 14.368 0 0 1 0 20.8l-44.576 44.56 44.576 44.576z m109.2-104L609.6 716.176a14.912 14.912 0 0 1-14.112 10.4c-1.488 0-2.976 0-4.464-0.752a14.848 14.848 0 0 1-10.4-18.56l34.912-118.864c2.24-8.16 10.4-12.64 18.576-10.4 8.16 2.976 12.64 11.136 10.4 19.312z m121.088 69.824l-54.976 54.976a14.656 14.656 0 0 1-10.4 4.464 14.656 14.656 0 0 1-10.4-4.464 14.368 14.368 0 0 1 0-20.8l44.576-44.576-44.576-44.56a14.368 14.368 0 0 1 0-20.8 14.368 14.368 0 0 1 20.8 0l54.976 54.96c5.936 5.2 5.936 14.864 0 20.8z" fill="#FFFFFF" p-id="4296"></path></svg>