<?xml version="1.0" standalone="no"?><!DOCTYPE svg PUBLIC "-//W3C//DTD SVG 1.1//EN" "http://www.w3.org/Graphics/SVG/1.1/DTD/svg11.dtd"><svg t="1727145100745" class="icon" viewBox="0 0 1024 1024" version="1.1" xmlns="http://www.w3.org/2000/svg" p-id="5183" xmlns:xlink="http://www.w3.org/1999/xlink" width="200" height="200"><path d="M969.76 363.584l12.32 12.32c10.752 10.752 16.672 25.056 16.64 40.224 0 15.136-5.92 29.408-16.672 40.096l-23.904 15.36v17.472L535.04 763.872c-5.664 3.36-14.528 5.376-23.744 5.376h-0.032c-9.088 0-17.824-1.952-23.456-5.248L64 493.28v-137.888c0-25.568 17.792-46.944 41.664-52.928h357.536c-0.768-3.744-2.272-7.232-2.272-11.2V242.272c0-1.888 0.896-3.488 1.088-5.344H110.176C49.408 236.928 0 286.048 0 346.464v565.056C0 971.904 49.408 1024 110.176 1024H913.6c60.768 0 110.176-52.096 110.176-112.512L1024 332.416l-43.456 0.224-10.784 30.944zM63.52 926.816L64 555.136l309.152 203.52-309.632 168.16z m51.072 32.192l311.296-169.408 34.72 20.288c28 16.512 74.048 16.352 102.016-0.256l38.72-23.04 319.04 172.448H114.592v-0.032z m843.2-34.144l-304.32-169.344 304.704-204.32-0.384 373.664z m46.208-704.608h-24.032a29.024 29.024 0 0 1-25.984-19.136l-13.792-33.504a28.8 28.8 0 0 1 4.672-31.84l17.056-17.024a20.064 20.064 0 0 0 0-28.384l-28.32-28.288a20.16 20.16 0 0 0-28.352 0l-17.024 17.024a28.736 28.736 0 0 1-31.84 4.704l-33.504-13.76a29.024 29.024 0 0 1-19.136-25.984v-24A20.096 20.096 0 0 0 783.712 0h-40a20.16 20.16 0 0 0-20.064 20.064v24c0 11.04-8.576 22.752-19.104 25.984l-33.536 13.792a28.608 28.608 0 0 1-31.776-4.736l-17.088-17.024a20.096 20.096 0 0 0-28.32 0l-28.32 28.288a20.096 20.096 0 0 0 0 28.352l16.992 17.024a28.64 28.64 0 0 1 4.736 31.84l-13.792 33.568a28.928 28.928 0 0 1-25.984 19.136l-24.032-0.032a20.096 20.096 0 0 0-20.032 20.032V280.32a20.16 20.16 0 0 0 20.032 20.064h24.032c11.008 0 22.688 8.608 25.92 19.136l13.824 33.536c5.184 9.728 3.104 24.064-4.704 31.84l-17.056 17.024a20.192 20.192 0 0 0 0 28.352l28.384 28.352c7.776 7.776 20.48 7.776 28.288 0l17.088-17.056a28.48 28.48 0 0 1 31.712-4.64l33.6 13.792a28.896 28.896 0 0 1 19.104 25.952v23.968c0 11.008 8.992 20.032 20.064 20.032h40a20.096 20.096 0 0 0 20.064-20.032v-23.968c0-11.008 8.64-22.688 19.136-25.952l33.568-13.792a28.704 28.704 0 0 1 31.84 4.64l16.96 17.056a20.096 20.096 0 0 0 28.32 0l28.384-28.352a20.032 20.032 0 0 0 0-28.352l-17.056-17.024a28.736 28.736 0 0 1-4.672-31.84l13.792-33.536c3.296-10.528 15.008-19.136 25.952-19.136h24.064A20.032 20.032 0 0 0 1024 280.384V240.288a20.064 20.064 0 0 0-20-20.032z m-240.224 179.872a139.84 139.84 0 1 1 0-279.68 139.84 139.84 0 1 1 0 279.68z" fill="#040000" p-id="5184"></path></svg>