<?xml version="1.0" standalone="no"?><!DOCTYPE svg PUBLIC "-//W3C//DTD SVG 1.1//EN" "http://www.w3.org/Graphics/SVG/1.1/DTD/svg11.dtd"><svg t="1722578142588" class="icon" viewBox="0 0 1945 1024" version="1.1" xmlns="http://www.w3.org/2000/svg" p-id="10863" width="121.5625" height="64" xmlns:xlink="http://www.w3.org/1999/xlink"><path d="M489.2672 536.8832L91.136 138.5472a51.2 51.2 0 1 1 72.3968-72.3968l470.6304 470.7328-470.6304 470.6304a51.2 51.2 0 0 1-72.3968-72.3968l398.336-398.336z" fill="#0497FF" p-id="10864"></path><path d="M1181.2864 512l-398.336-398.336a51.2 51.2 0 1 1 72.4992-72.2944L1326.08 512 855.4496 982.6304a51.2 51.2 0 1 1-72.4992-72.3968L1181.2864 512z" fill="#68C1FF" p-id="10865"></path><path d="M1795.6864 512l-398.336-398.336a51.2 51.2 0 1 1 72.4992-72.2944L1940.48 512l-470.6304 470.6304a51.2 51.2 0 1 1-72.4992-72.3968L1795.6864 512z" fill="#CDEAFF" p-id="10866"></path></svg>