<?xml version="1.0" standalone="no"?><!DOCTYPE svg PUBLIC "-//W3C//DTD SVG 1.1//EN" "http://www.w3.org/Graphics/SVG/1.1/DTD/svg11.dtd"><svg t="1721891809479" class="icon" viewBox="0 0 1024 1024" version="1.1" xmlns="http://www.w3.org/2000/svg" p-id="4320" xmlns:xlink="http://www.w3.org/1999/xlink" width="200" height="200"><path d="M832 1024H576.768v-128H768a64 64 0 0 0 64-64V192a64 64 0 0 0-64-64H321.472a64 64 0 0 0-64 64v256h-128V128a128 128 0 0 1 128-128H832a128 128 0 0 1 128 128v768a128 128 0 0 1-128 128z m-592.192-373.632v43.264h206.08a74.176 74.176 0 0 1 0 147.584h-206.08v43.264a77.888 77.888 0 0 1-19.584 52.16 62.528 62.528 0 0 1-94.592 0L19.648 819.584a79.296 79.296 0 0 1 0-104.384l106.048-116.992a64 64 0 0 1 47.104-21.632 70.4 70.4 0 0 1 67.008 73.792zM385.216 256h319.36v128h-319.36V256z m319.36 384h-128V512h128v128z" fill="#288AF7" p-id="4321"></path></svg>