<?xml version="1.0" standalone="no"?><!DOCTYPE svg PUBLIC "-//W3C//DTD SVG 1.1//EN" "http://www.w3.org/Graphics/SVG/1.1/DTD/svg11.dtd"><svg t="1721891776753" class="icon" viewBox="0 0 1024 1024" version="1.1" xmlns="http://www.w3.org/2000/svg" p-id="4628" xmlns:xlink="http://www.w3.org/1999/xlink" width="200" height="200"><path d="M96 1024c-19.2 0-32-12.8-32-32s12.8-32 32-32h832c19.2 0 32 12.8 32 32s-12.8 32-32 32h-832zM192 0h256c38.4 0 64 25.6 64 64v256c0 38.4-25.6 64-64 64H192c-38.4 0-64-25.6-64-64V64c0-38.4 25.6-64 64-64z" fill="#4D82B8" p-id="4629"></path><path d="M352 320h-64V224H192v-64h96V64h64v96H448v64H352z" fill="#FFFFFF" p-id="4630"></path><path d="M672 640h-192V576h192v64z m128-128h-64V256c0-19.2-12.8-32-32-32H512v-64h192c51.2 0 96 44.8 96 96v256z" fill="#4D82B8" p-id="4631"></path><path d="M160 480h320v256h-320z" fill="#FFFFFF" p-id="4632"></path><path d="M512 768H128V448h384v320z m-320-64h256V512H192v192z" fill="#999999" p-id="4633"></path><path d="M672 480h192v256h-192z" fill="#FFFFFF" p-id="4634"></path><path d="M896 768h-256V448h256v320z m-192-64h128V512h-128v192z" fill="#999999" p-id="4635"></path><path d="M128 256H64c-38.4 0-64 25.6-64 64v512c0 38.4 25.6 64 64 64h896c38.4 0 64-25.6 64-64V320c0-38.4-25.6-64-64-64h-128v64h128v512H64V320h64V256z" fill="#555555" p-id="4636"></path></svg>