<?xml version="1.0" standalone="no"?><!DOCTYPE svg PUBLIC "-//W3C//DTD SVG 1.1//EN" "http://www.w3.org/Graphics/SVG/1.1/DTD/svg11.dtd"><svg t="1725961314518" class="icon" viewBox="0 0 1024 1024" version="1.1" xmlns="http://www.w3.org/2000/svg" p-id="6913" xmlns:xlink="http://www.w3.org/1999/xlink" width="200" height="200"><path d="M775.314286 43.885714a87.771429 87.771429 0 0 1 87.771428 87.771429v447.400228a263.811657 263.811657 0 0 0-58.514285-39.687314V160.914286a58.514286 58.514286 0 0 0-58.514286-58.514286H219.428571a58.514286 58.514286 0 0 0-58.441142 55.588571L160.914286 160.914286v643.657143a58.514286 58.514286 0 0 0 55.588571 58.441142L219.428571 863.085714h219.779658a262.378057 262.378057 0 0 0 29.374171 58.528915L190.171429 921.6a87.771429 87.771429 0 0 1-87.771429-87.771429V131.657143a87.771429 87.771429 0 0 1 87.771429-87.771429h585.142857zM438.857143 599.771429a29.257143 29.257143 0 0 1 29.257143 29.257142l-0.029257 0.7168a263.138743 263.138743 0 0 0-14.4384 24.517486A28.949943 28.949943 0 0 1 438.857143 658.285714H292.571429a29.257143 29.257143 0 1 1 0-58.514285h146.285714z m146.285714-175.542858a29.257143 29.257143 0 1 1 0 58.514286H292.571429a29.257143 29.257143 0 1 1 0-58.514286h292.571428z m87.771429-175.542857a29.257143 29.257143 0 1 1 0 58.514286H292.571429a29.257143 29.257143 0 1 1 0-58.514286h380.342857z" fill="#697EFF" p-id="6914"></path><path d="M687.542857 570.514286c33.426286 0 64.980114 8.001829 92.847543 22.206171l-49.342171 32.768-1.360458 9.698743A146.285714 146.285714 0 0 0 687.542857 629.028571c-80.7936 0-146.285714 65.492114-146.285714 146.285715s65.492114 146.285714 146.285714 146.285714c74.459429 0 135.943314-55.647086 145.115429-127.634286l17.349485 4.110629 42.276572-28.028343c0.029257 1.755429 0.058514 3.510857 0.058514 5.266286 0 113.108114-91.691886 204.8-204.8 204.8s-204.8-91.691886-204.8-204.8 91.691886-204.8 204.8-204.8z m197.778286 151.464228l-43.710172 29.008457-10.24-2.442971a146.3296 146.3296 0 0 0-60.181942-93.257143l0.585142-4.154514 48.215772-32.036572a204.873143 204.873143 0 0 1 65.345828 102.882743z" fill="#4DEDFD" p-id="6915"></path><path d="M805.419886 742.4l-108.061257 70.977829c-15.652571 10.415543-37.039543 6.465829-47.7184-8.777143a32.885029 32.885029 0 0 1 9.025828-46.4896l108.046629-71.007086 5.046857-35.986286 73.874286-49.064228a13.984914 13.984914 0 0 1 15.111314-0.146286c4.608 2.925714 6.992457 8.221257 6.056228 13.487543l-7.299657 39.306971a13.355886 13.355886 0 0 0 10.825143 15.433143l40.170057 7.753143a13.458286 13.458286 0 0 1 10.825143 10.386286 13.121829 13.121829 0 0 1-5.778286 13.663085l-73.9328 49.0496-36.191085-8.586971z" fill="#4DEDFD" p-id="6916"></path></svg>