<?xml version="1.0" standalone="no"?><!DOCTYPE svg PUBLIC "-//W3C//DTD SVG 1.1//EN" "http://www.w3.org/Graphics/SVG/1.1/DTD/svg11.dtd"><svg t="1722234316878" class="icon" viewBox="0 0 1024 1024" version="1.1" xmlns="http://www.w3.org/2000/svg" p-id="6854" xmlns:xlink="http://www.w3.org/1999/xlink" width="200" height="200"><path d="M892.453401 657.732997c-5.15869-5.15869-10.31738-5.15869-15.476071-5.15869h-162.498741v-208.926952c0-12.896725-10.31738-20.634761-20.63476-20.634761h-183.133502c-5.15869 0-10.31738 2.579345-15.47607 5.158691-5.15869 5.15869-5.15869 10.31738-5.15869 15.47607v87.697733h-141.86398V283.72796c0-5.15869-2.579345-10.31738-5.15869-15.476071-5.15869-5.15869-10.31738-5.15869-15.476071-5.15869h-180.554156c-5.15869 0-10.31738 2.579345-15.476071 5.15869-5.15869 5.15869-5.15869 10.31738-5.15869 15.476071v619.042821c0 12.896725 10.31738 20.634761 20.634761 20.634761H876.97733c5.15869 0 10.31738-2.579345 15.476071-5.158691 5.15869-5.15869 5.15869-10.31738 5.15869-15.47607v-229.561713c0-7.738035-2.579345-12.896725-5.15869-15.476071z m-585.511336 224.403023H167.657431V301.783375h139.284634v580.352645z m183.133502 0h-139.284635v-309.52141H490.075567v309.52141z m183.133501 0h-141.86398V461.702771h141.86398v420.433249z m183.133501 0h-141.86398v-188.292191h141.86398v188.292191zM459.123426 299.20403c2.579345 2.579345 7.738035 2.579345 10.31738 2.579345 5.15869 0 7.738035-2.579345 12.896725-5.15869l121.22922-87.697733 203.768262 139.284635h-49.007557c-10.31738 0-20.634761 10.31738-20.634761 20.634761 0 12.896725 10.31738 20.634761 20.634761 20.63476h105.753149c5.15869 0 12.896725-2.579345 15.47607-7.738035 5.15869-5.15869 5.15869-10.31738 5.15869-18.055416l-15.47607-103.173803c-2.579345-10.31738-10.31738-18.055416-20.634761-18.055416h-2.579345c-10.31738 2.579345-20.634761 12.896725-18.055416 25.793451l5.15869 46.428212-216.664987-152.18136c-2.579345-2.579345-7.738035-5.15869-12.896725-5.158691s-7.738035 2.579345-12.896726 5.158691l-121.229219 87.697733L242.458438 103.173804c-2.579345-2.579345-7.738035-5.15869-10.31738-5.158691-7.738035 0-15.476071 5.15869-18.055416 10.317381-7.738035 10.31738-2.579345 23.214106 5.15869 30.952141l239.879094 159.919395z" fill="#0C0809" p-id="6855"></path></svg>