<?xml version="1.0" standalone="no"?><!DOCTYPE svg PUBLIC "-//W3C//DTD SVG 1.1//EN" "http://www.w3.org/Graphics/SVG/1.1/DTD/svg11.dtd"><svg t="1722234346810" class="icon" viewBox="0 0 1024 1024" version="1.1" xmlns="http://www.w3.org/2000/svg" p-id="7890" xmlns:xlink="http://www.w3.org/1999/xlink" width="200" height="200"><path d="M483.048727 202.821818l15.453091-17.384727 191.348364 170.077091-15.476364 17.408zM482.978909 528.64l15.476364-17.384727 191.325091 170.053818-15.453091 17.384727zM482.606545 819.409455l16.453819-16.477091 187.601454 187.601454-16.453818 16.453818z" fill="#2c2c2c" p-id="7891"></path><path d="M656.058182 357.259636L974.498909 24.203636l16.826182 16.081455-318.440727 333.056zM655.988364 682.984727l318.557091-332.986182 16.826181 16.104728L672.814545 699.066182zM652.916364 990.626909l322.304-358.027636 17.291636 15.569454-322.280727 358.027637zM244.363636 349.090909H128c-65.163636 0-116.363636-51.2-116.363636-116.363636V116.363636c0-65.163636 51.2-116.363636 116.363636-116.363636h116.363636c65.163636 0 116.363636 51.2 116.363637 116.363636v116.363637c0 65.163636-51.2 116.363636-116.363637 116.363636zM128 46.545455C88.436364 46.545455 58.181818 76.8 58.181818 116.363636v116.363637c0 39.563636 30.254545 69.818182 69.818182 69.818182h116.363636c39.563636 0 69.818182-30.254545 69.818182-69.818182V116.363636c0-39.563636-30.254545-69.818182-69.818182-69.818181H128zM244.363636 1024H128c-65.163636 0-116.363636-51.2-116.363636-116.363636v-116.363637c0-65.163636 51.2-116.363636 116.363636-116.363636h116.363636c65.163636 0 116.363636 51.2 116.363637 116.363636v116.363637c0 65.163636-51.2 116.363636-116.363637 116.363636zM128 721.454545c-39.563636 0-69.818182 30.254545-69.818182 69.818182v116.363637c0 39.563636 30.254545 69.818182 69.818182 69.818181h116.363636c39.563636 0 69.818182-30.254545 69.818182-69.818181v-116.363637c0-39.563636-30.254545-69.818182-69.818182-69.818182H128zM34.909091 488.727273h279.272727v46.545454H34.909091z" fill="#2c2c2c" p-id="7892"></path></svg>