<?xml version="1.0" standalone="no"?><!DOCTYPE svg PUBLIC "-//W3C//DTD SVG 1.1//EN" "http://www.w3.org/Graphics/SVG/1.1/DTD/svg11.dtd"><svg t="1722234414224" class="icon" viewBox="0 0 1024 1024" version="1.1" xmlns="http://www.w3.org/2000/svg" p-id="12234" xmlns:xlink="http://www.w3.org/1999/xlink" width="200" height="200"><path d="M512 391.5c22.6 0 41 18.3 41 41v315.4c0 22.6-18.3 41-41 41-22.6 0-41-18.3-41-41V432.4c0-22.6 18.4-40.9 41-40.9zM214.6 49.8c19.4-11.7 44.5-5.5 56.2 13.8l109.8 181.5c11.7 19.4 5.5 44.5-13.8 56.2-19.4 11.7-44.5 5.5-56.2-13.8L200.7 106c-11.7-19.3-5.5-44.5 13.9-56.2zM804.8 49.8c-19.4-11.7-44.5-5.5-56.2 13.8L633.1 254.4c-11.7 19.4-5.5 44.5 13.8 56.2 19.4 11.7 44.5 5.5 56.2-13.8L818.6 106c11.7-19.3 5.5-44.5-13.8-56.2z" fill="#2c2c2c" p-id="12235"></path><path d="M818.1 344.5l-63.4 50.8-0.7 1.1c42.2 52.8 67.4 119.7 67.4 192.5 0 170.5-138.2 308.7-308.7 308.7-170.5 0.1-308.7-138.2-308.7-308.7s138.2-308.7 308.7-308.7c48.3 0 94 11.1 134.6 30.8l45.8-69.3c-54-28.1-115.3-44-180.4-44-216.1 0-391.2 175.1-391.2 391.2s175.1 391.2 391.2 391.2S903.9 805 903.9 588.9c0-92.4-32.1-177.4-85.8-244.4z" fill="#2c2c2c" p-id="12236"></path><path d="M785.7 369.8m-40.9 0a40.9 40.9 0 1 0 81.8 0 40.9 40.9 0 1 0-81.8 0Z" fill="#2c2c2c" p-id="12237"></path></svg>