<?xml version="1.0" standalone="no"?><!DOCTYPE svg PUBLIC "-//W3C//DTD SVG 1.1//EN" "http://www.w3.org/Graphics/SVG/1.1/DTD/svg11.dtd"><svg t="1724141859189" class="icon" viewBox="0 0 1092 1024" version="1.1" xmlns="http://www.w3.org/2000/svg" p-id="5325" xmlns:xlink="http://www.w3.org/1999/xlink" width="213.28125" height="200"><path d="M702.895007 0.068262c28.943137 0 65.190321 29.216186 65.190321 58.432371v124.100527h224.582361c43.482968 0 94.20172 51.128325 94.20172 94.884341v153.384974H0V277.553763c0-43.824278 43.482968-94.884341 94.20172-94.884341h188.40344V58.364109c0-29.147923 36.178921-58.364109 65.19032-58.364109zM637.568162 94.952603h-224.582361c-14.539831 0-29.011399 7.372309-29.011399 29.216186v58.432371h289.840944l-7.235785-58.432371c0-14.608093-7.235784-29.147923-29.011399-29.147924zM543.434704 620.70742c65.258583 0 65.258583-73.040464 65.258583-124.100527H449.164722c0 36.520232 0 124.100527 65.258583 124.100527h28.943137z" fill="#4EBAF8" p-id="5326"></path><path d="M673.883608 496.606893s50.718752 182.532898-144.920472 182.532898c-202.875008 0-144.920472-182.532898-144.920472-182.532898H0v430.733951c0 51.196587 43.482968 94.952603 94.20172 94.952603h898.534231c50.718752 0 94.20172-36.520232 94.20172-94.884341V496.606893H673.815346z" fill="#429DD1" p-id="5327"></path></svg>